# xmcd
#
# Track frame offsets:
#	150
#	13780
#	26768
#	39708
#	54437
#	67221
#	80799
#	96216
#	110264
#	123800
#	136472
#	149353
#	161072
#	171939
#	187657
#	201720
#	216156
#	228970
#	242369
#	254703
#	269827
#	283707
#	297987
#	309975
#	323068
#
# Disc length: 4485 seconds
#
# Revision: 3
# Processed by: cddbd v1.5.2PL0 Copyright (c) Steve Scherf et al.
# Submitted via: EZCDAudioConverter 3.1.0.1
#
DISCID=83118319
DTITLE=Memphis Minnie - Queen Of Country Blues
DYEAR=1931
DGENRE=Blues
TTITLE0=New Dirty Dozen
TTITLE1=New Bumble Bee
TTITLE2=Frankie Jean (That Trottin' Fool)
TTITLE3=I'm Talking 'Bout You - No. 2
TTITLE4=She Put Me Outdoors
TTITLE5=I Called You This Morning
TTITLE6=Grandpa And Grandma Blues
TTITLE7=Garage Fire Blues
TTITLE8=Dirt Dauber Blues
TTITLE9=You Dirty Mistreater
TTITLE10=What's The Matter With The Mill
TTITLE11=North Memphis Blues
TTITLE12=I Don't Want That Junk Outa You
TTITLE13=Crazy Cryin' Blues
TTITLE14=Tricks Ain't Walking No More
TTITLE15=Don't Bother It
TTITLE16=Today Today Blues
TTITLE17=Lay My Money Down (If You Run Around)
TTITLE18=Hard Down Lie
TTITLE19=Somebody's Got To Help You
TTITLE20=Pickin' The Blues
TTITLE21=Let's Go To Town
TTITLE22=Soo Cow Soo
TTITLE23=After While Blues
TTITLE24=Fishin' Blues
EXTD=
EXTT0=
EXTT1=
EXTT2=
EXTT3=
EXTT4=
EXTT5=
EXTT6=
EXTT7=
EXTT8=
EXTT9=
EXTT10=
EXTT11=
EXTT12=
EXTT13=
EXTT14=
EXTT15=
EXTT16=
EXTT17=
EXTT18=
EXTT19=
EXTT20=
EXTT21=
EXTT22=
EXTT23=
EXTT24=
PLAYORDER=
